<svg width="162" height="32" viewBox="0 0 162 32" fill="none" xmlns="http://www.w3.org/2000/svg">
<path d="M32 8.00246V20.6996H18.0191L30.1128 5.99046H0.240234C0.667791 4.277 1.62139 2.76048 2.95257 1.67701C4.28374 0.593543 5.91778 0.00393994 7.60027 0L23.0398 0L19.3991 4.23514H24.9034L27.8246 0.856963C29.0764 1.52347 30.1293 2.54053 30.8677 3.79631C31.058 4.11645 31.225 4.45137 31.367 4.79817C31.5291 5.18352 31.6606 5.58231 31.7602 5.99046C31.872 6.44507 31.9457 6.90915 31.9804 7.37734C31.9804 7.42702 31.9804 7.47669 31.9804 7.52637C31.9961 7.68369 32 7.84101 32 8.00246Z" fill="#37BE50"/>
<path d="M31.7283 26.113C31.3293 27.6453 30.5066 29.018 29.3648 30.0567C28.223 31.0954 26.8136 31.7531 25.3158 31.9461H25.2883C24.8047 31.9917 24.3211 32 23.8375 32H7.40328C5.45549 31.9476 3.60121 31.1094 2.22347 29.6587C0.845724 28.208 0.0497634 26.2555 0 24.2045L0 24.1465C0 20.611 0.0235898 17.0797 0 13.5483C0 13.1344 0 12.7204 0 12.3064V10.9443H21.51L13.5445 20.698H10.6665L16.9061 13.1675H12.365L1.78497 26.113H31.7283Z" fill="#19A5FF"/>
<path d="M158.118 21.4116V15.294H153.157V21.4116H158.118ZM149.275 23.9998V8H153.092V12.7058H159.455C161.152 12.7058 162 13.5939 162 15.3699V21.3357C162 23.1118 161.152 23.9998 159.455 23.9998H149.275Z" fill="#37BE50"/>
<path d="M143.541 17.1766V15.2943H135.776V12.7061H144.835C146.56 12.7061 147.423 13.575 147.423 15.3127V24.0001H137.07C135.345 24.0001 134.482 23.1312 134.482 21.3934V19.7833C134.482 18.0455 135.345 17.1766 137.07 17.1766H143.541ZM138.364 19.7833V21.4118H143.541V19.7833H138.364Z" fill="#37BE50"/>
<path d="M120.983 23.9998C119.258 23.9998 118.395 23.111 118.395 21.3332V8H122.277V21.4116H132.63V23.9998H120.983Z" fill="#37BE50"/>
<path d="M103.818 15.3127C103.818 13.575 104.666 12.7061 106.363 12.7061H113.998C115.695 12.7061 116.543 13.575 116.543 15.3127V21.3934C116.543 23.1312 115.695 24.0001 113.998 24.0001H106.363C104.666 24.0001 103.818 23.1312 103.818 21.3934V15.3127ZM107.7 15.2943V21.4118H112.661V15.2943H107.7Z" fill="#19A5FF"/>
<path d="M98.084 24.0001V15.2943H93.1233V24.0001H89.241V12.7061H99.4212C101.118 12.7061 101.966 13.58 101.966 15.3279V24.0001H98.084Z" fill="#19A5FF"/>
<path d="M83.5069 24.0001V15.2943H78.5462V24.0001H74.6639V12.7061H84.8441C86.5408 12.7061 87.3891 13.58 87.3891 15.3279V24.0001H83.5069Z" fill="#19A5FF"/>
<path d="M72.812 24.0001H62.4593C60.7339 24.0001 59.8712 23.1312 59.8712 21.3934V15.3127C59.8712 13.575 60.7339 12.7061 62.4593 12.7061H70.2239C71.9493 12.7061 72.812 13.575 72.812 15.3127V19.6564H63.7534V21.4118H72.812V24.0001ZM63.7534 15.2943V17.1766H68.9298V15.2943H63.7534Z" fill="#19A5FF"/>
<path d="M58.0193 8V10.6666L49.023 21.4105H58.0193V23.9998H44V21.3332L52.9836 10.5882H44V8H58.0193Z" fill="#19A5FF"/>
</svg>
