<svg width="534" height="440" viewBox="0 0 534 440" fill="none" xmlns="http://www.w3.org/2000/svg">
<path d="M221.018 45.4795C285.29 31.8997 352.415 47.1258 406.071 78.665C459.735 110.209 499.856 158.026 510.211 209.559C520.552 261.025 494.993 308.953 450.664 347.459C406.339 385.962 343.32 414.974 278.974 428.569C214.593 442.172 158.965 443.842 116.862 429.245C74.8058 414.665 46.2001 383.839 35.8428 332.294C25.4821 280.731 39.6228 215.811 72.4609 160.369C105.296 104.933 156.778 59.0524 221.018 45.4795Z" fill="url(#paint0_linear_316_483)" fill-opacity="0.5" stroke="url(#paint1_linear_316_483)"/>
<path d="M43.1603 165.866L197.313 76.866C201.617 74.3807 207.122 75.8556 209.607 80.1603L319.607 270.686C322.092 274.99 320.617 280.495 316.313 282.98L162.16 371.98C157.856 374.465 152.351 372.99 149.866 368.686L39.866 178.16C37.3807 173.856 38.8556 168.351 43.1603 165.866Z" stroke="url(#paint2_linear_316_483)" stroke-width="2"/>
<g filter="url(#filter0_d_316_483)">
<path d="M273.01 139.6C274.899 134.41 280.637 131.734 285.827 133.623L453.092 194.502C458.282 196.391 460.958 202.13 459.069 207.32L387.245 404.655C385.356 409.845 379.617 412.521 374.427 410.632L207.162 349.752C201.972 347.863 199.296 342.125 201.185 336.935L273.01 139.6Z" fill="url(#paint3_linear_316_483)"/>
<path d="M262.735 214.609C263.491 212.533 265.786 211.463 267.862 212.218L416.333 266.258C418.409 267.013 419.48 269.309 418.724 271.384C417.969 273.46 415.673 274.531 413.597 273.775L265.126 219.736C263.05 218.98 261.98 216.685 262.735 214.609Z" fill="url(#paint4_linear_316_483)"/>
<path d="M257.263 229.644C258.018 227.568 260.314 226.498 262.39 227.254L306.555 243.328C308.631 244.084 309.702 246.379 308.946 248.455C308.19 250.531 305.895 251.602 303.819 250.846L259.654 234.771C257.578 234.015 256.507 231.72 257.263 229.644Z" fill="url(#paint5_linear_316_483)"/>
<path d="M312.705 249.823C313.46 247.747 315.756 246.677 317.832 247.433L410.861 281.293C412.937 282.048 414.007 284.344 413.252 286.42C412.496 288.495 410.201 289.566 408.125 288.81L315.095 254.95C313.02 254.195 311.949 251.899 312.705 249.823Z" fill="url(#paint6_linear_316_483)"/>
<path d="M251.791 244.679C252.546 242.603 254.842 241.533 256.917 242.289L405.389 296.328C407.465 297.083 408.535 299.379 407.78 301.455C407.024 303.531 404.729 304.601 402.653 303.845L254.181 249.806C252.105 249.051 251.035 246.755 251.791 244.679Z" fill="url(#paint7_linear_316_483)"/>
<path d="M246.318 259.714C247.074 257.638 249.369 256.568 251.445 257.324L333.198 287.079C335.274 287.835 336.345 290.13 335.589 292.206C334.833 294.282 332.538 295.353 330.462 294.597L248.709 264.841C246.633 264.086 245.563 261.79 246.318 259.714Z" fill="url(#paint8_linear_316_483)"/>
<path d="M339.348 293.574C340.103 291.498 342.399 290.428 344.475 291.184L399.917 311.363C401.992 312.118 403.063 314.414 402.307 316.49C401.552 318.566 399.256 319.636 397.18 318.88L341.739 298.701C339.663 297.946 338.592 295.65 339.348 293.574Z" fill="url(#paint9_linear_316_483)"/>
<path d="M240.846 274.749C241.601 272.674 243.897 271.603 245.973 272.359L394.444 326.398C396.52 327.154 397.59 329.449 396.835 331.525C396.079 333.601 393.784 334.671 391.708 333.916L243.237 279.876C241.161 279.121 240.09 276.825 240.846 274.749Z" fill="url(#paint10_linear_316_483)"/>
<path d="M284.624 154.469C285.38 152.393 287.675 151.323 289.751 152.078L333.917 168.153C335.993 168.909 337.063 171.204 336.308 173.28C335.552 175.356 333.257 176.426 331.181 175.671L287.015 159.596C284.939 158.84 283.869 156.545 284.624 154.469Z" fill="url(#paint11_linear_316_483)"/>
<path d="M279.152 169.504C279.908 167.428 282.203 166.358 284.279 167.113L432.75 221.152C434.826 221.908 435.897 224.203 435.141 226.279C434.386 228.355 432.09 229.425 430.014 228.67L281.543 174.631C279.467 173.875 278.397 171.58 279.152 169.504Z" fill="url(#paint12_linear_316_483)"/>
<path d="M273.68 184.539C274.435 182.463 276.731 181.393 278.807 182.148L360.56 211.904C362.636 212.66 363.706 214.955 362.951 217.031C362.195 219.107 359.9 220.177 357.824 219.422L276.071 189.666C273.995 188.91 272.924 186.615 273.68 184.539Z" fill="url(#paint13_linear_316_483)"/>
<path d="M366.709 218.399C367.465 216.323 369.76 215.253 371.836 216.008L427.278 236.187C429.354 236.943 430.424 239.238 429.669 241.314C428.913 243.39 426.618 244.461 424.542 243.705L369.1 223.526C367.024 222.77 365.954 220.475 366.709 218.399Z" fill="url(#paint14_linear_316_483)"/>
<path d="M268.207 199.574C268.963 197.498 271.258 196.428 273.334 197.183L421.806 251.223C423.882 251.978 424.952 254.274 424.196 256.349C423.441 258.425 421.146 259.496 419.07 258.74L270.598 204.701C268.522 203.945 267.452 201.65 268.207 199.574Z" fill="url(#paint15_linear_316_483)"/>
<path d="M235.374 289.785C236.129 287.709 238.425 286.638 240.5 287.394L284.666 303.469C286.742 304.224 287.812 306.52 287.057 308.596C286.301 310.672 284.006 311.742 281.93 310.986L237.764 294.911C235.688 294.156 234.618 291.86 235.374 289.785Z" fill="url(#paint16_linear_316_483)"/>
<path d="M290.816 309.964C291.571 307.888 293.866 306.817 295.942 307.573L388.972 341.433C391.048 342.189 392.118 344.484 391.363 346.56C390.607 348.636 388.312 349.706 386.236 348.951L293.206 315.091C291.13 314.335 290.06 312.04 290.816 309.964Z" fill="url(#paint17_linear_316_483)"/>
<path d="M229.901 304.82C230.657 302.744 232.952 301.673 235.028 302.429L383.5 356.468C385.576 357.224 386.646 359.519 385.89 361.595C385.135 363.671 382.839 364.741 380.763 363.986L232.292 309.946C230.216 309.191 229.146 306.896 229.901 304.82Z" fill="url(#paint18_linear_316_483)"/>
<path d="M224.429 319.855C225.184 317.779 227.48 316.708 229.556 317.464L301.912 343.8C303.988 344.555 305.058 346.851 304.303 348.926C303.547 351.002 301.252 352.073 299.176 351.317L226.82 324.982C224.744 324.226 223.673 321.931 224.429 319.855Z" fill="url(#paint19_linear_316_483)"/>
</g>
<g filter="url(#filter1_d_316_483)">
<path d="M52.3245 142.328C50.8951 136.994 54.0609 131.51 59.3956 130.081L231.33 84.0112C236.665 82.5818 242.148 85.7476 243.578 91.0823L300.518 303.586C301.947 308.921 298.782 314.404 293.447 315.833L121.512 361.903C116.177 363.333 110.694 360.167 109.265 354.832L52.3245 142.328Z" fill="url(#paint20_linear_316_483)"/>
<g filter="url(#filter2_d_316_483)">
<path d="M51.8069 140.397C50.6633 136.129 53.196 131.742 57.4637 130.599L233.262 83.4936C237.53 82.35 241.917 84.8827 243.06 89.1504L249.023 111.402C249.715 113.987 248.613 116.717 246.32 118.096L171.775 162.941C165.34 166.812 157.945 168.794 150.437 168.659L63.4569 167.094C60.7817 167.046 58.4617 165.233 57.7692 162.648L51.8069 140.397Z" fill="url(#paint21_linear_316_483)"/>
</g>
<rect x="141.821" y="134.395" width="21" height="82" rx="10.5" transform="rotate(-15 141.821 134.395)" stroke="url(#paint22_linear_316_483)" stroke-width="3"/>
<g filter="url(#filter3_d_316_483)">
<circle cx="154.68" cy="141.819" r="12" transform="rotate(-15 154.68 141.819)" fill="url(#paint23_linear_316_483)"/>
</g>
<g filter="url(#filter4_d_316_483)">
<circle cx="170.468" cy="200.741" r="12" transform="rotate(-15 170.468 200.741)" fill="url(#paint24_linear_316_483)"/>
</g>
<path d="M139.382 317.43L131.57 334.817L143.205 331.699L144.127 335.138L125.995 339.996L125.046 336.454L132.841 319.07L121.222 322.183L120.301 318.746L138.433 313.888L139.382 317.43Z" fill="url(#paint25_linear_316_483)"/>
<path fill-rule="evenodd" clip-rule="evenodd" d="M155.893 315.908C158.124 315.31 159.549 316.165 160.168 318.473L161.714 324.242L149.998 327.382L150.623 329.713L162.339 326.574L163.26 330.011L149.87 333.599C147.638 334.197 146.214 333.342 145.595 331.034L143.431 322.958C142.813 320.65 143.619 319.197 145.85 318.599L155.893 315.908ZM149.116 324.088L155.81 322.294L155.14 319.794L148.446 321.588L149.116 324.088Z" fill="url(#paint26_linear_316_483)"/>
<path d="M174.802 310.842C176.996 310.254 178.405 311.12 179.027 313.441L182.113 324.96L177.092 326.305L173.994 314.742L167.577 316.462L170.676 328.024L165.655 329.37L161.635 314.37L174.802 310.842Z" fill="url(#paint27_linear_316_483)"/>
<path d="M193.655 305.79C195.85 305.202 197.258 306.068 197.88 308.389L200.967 319.908L195.945 321.253L192.847 309.691L186.431 311.41L189.529 322.973L184.508 324.318L180.489 309.318L193.655 305.79Z" fill="url(#paint28_linear_316_483)"/>
<path fill-rule="evenodd" clip-rule="evenodd" d="M212.509 300.738C214.703 300.15 216.11 301.01 216.728 303.318L218.892 311.394C219.511 313.702 218.722 315.15 216.528 315.738L206.654 318.384C204.459 318.972 203.052 318.112 202.434 315.804L200.27 307.728C199.651 305.42 200.44 303.972 202.634 303.384L212.509 300.738ZM207.462 314.483L213.878 312.764L211.701 304.639L205.284 306.358L207.462 314.483Z" fill="url(#paint29_linear_316_483)"/>
<path d="M226.315 309.432L239.705 305.844L240.626 309.281L225.563 313.317C223.331 313.915 221.899 313.033 221.266 310.672L216.521 292.964L221.542 291.619L226.315 309.432Z" fill="url(#paint30_linear_316_483)"/>
<path fill-rule="evenodd" clip-rule="evenodd" d="M252.392 290.051C254.623 289.454 256.049 290.308 256.667 292.616L259.759 304.155L246.369 307.742C244.137 308.34 242.712 307.485 242.094 305.178L241.521 303.039C240.902 300.731 241.709 299.277 243.94 298.679L252.308 296.437L251.638 293.937L241.596 296.628L240.675 293.191L252.392 290.051ZM247.121 303.857L253.816 302.063L253.236 299.9L246.542 301.694L247.121 303.857Z" fill="url(#paint31_linear_316_483)"/>
<path fill-rule="evenodd" clip-rule="evenodd" d="M263.072 287.19L271.3 284.985C273.494 284.397 274.908 285.282 275.54 287.641L277.663 295.565C278.295 297.924 277.514 299.397 275.319 299.985L262.153 303.513L256.459 282.263L261.397 280.94L263.072 287.19ZM266.253 298.73L272.669 297.011L270.492 288.886L264.076 290.605L266.253 298.73Z" fill="url(#paint32_linear_316_483)"/>
<g filter="url(#filter5_i_316_483)">
<path d="M176.099 195.749L177.481 200.908L171.8 202.431L175.113 195.137L162.975 198.39C162.962 197.647 163.184 196.927 163.607 196.342C164.03 195.756 164.63 195.339 165.313 195.154L171.587 193.473L170.569 195.59L172.805 194.991L173.624 193.3C174.206 193.435 174.744 193.733 175.181 194.163C175.293 194.273 175.397 194.391 175.493 194.516C175.601 194.655 175.698 194.803 175.782 194.958C175.877 195.13 175.958 195.311 176.023 195.497C176.028 195.517 176.034 195.538 176.039 195.558C176.063 195.62 176.081 195.684 176.099 195.749Z" fill="#EDB262"/>
<path d="M177.96 203.138C177.965 203.804 177.78 204.451 177.429 204.998C177.078 205.544 176.577 205.965 175.989 206.206L175.978 206.209C175.787 206.281 175.591 206.337 175.395 206.389L168.717 208.179C167.92 208.369 167.075 208.231 166.357 207.791C165.639 207.352 165.103 206.645 164.86 205.817L164.853 205.793C164.469 204.357 164.094 202.919 163.7 201.487C163.654 201.319 163.609 201.151 163.564 200.982L163.416 200.429L172.156 198.087L169.982 202.917L168.812 203.231L170.528 199.492L168.682 199.986L165.793 206.398L177.96 203.138Z" fill="#EDB262"/>
</g>
</g>
<g filter="url(#filter6_d_316_483)">
<path d="M217.144 129.755C217.817 124.273 222.806 120.375 228.288 121.048L373.2 138.841L409.768 185.646L386.856 372.245C386.183 377.727 381.194 381.625 375.712 380.952L199.039 359.259C193.557 358.586 189.659 353.597 190.332 348.115L217.144 129.755Z" fill="white"/>
<path d="M369.3 170.602L373.199 138.841L409.768 185.646L378.006 181.747C372.525 181.074 368.627 176.084 369.3 170.602Z" fill="url(#paint33_linear_316_483)"/>
<path d="M260.416 179.398C260.685 177.206 262.681 175.646 264.874 175.916L356.188 187.128C358.381 187.397 359.94 189.393 359.671 191.585C359.401 193.778 357.406 195.337 355.213 195.068L263.899 183.856C261.706 183.587 260.147 181.591 260.416 179.398Z" fill="url(#paint34_linear_316_483)" fill-opacity="0.8"/>
<path d="M276.576 195.488C276.845 193.295 278.841 191.736 281.033 192.005L336.616 198.83C338.809 199.099 340.368 201.095 340.099 203.287C339.829 205.48 337.834 207.039 335.641 206.77L280.058 199.945C277.866 199.676 276.307 197.68 276.576 195.488Z" fill="url(#paint35_linear_316_483)" fill-opacity="0.8"/>
<path d="M223.031 213.093C223.3 210.901 225.296 209.342 227.489 209.611L384.311 228.866C386.504 229.135 388.063 231.131 387.794 233.324C387.525 235.516 385.529 237.076 383.336 236.806L226.514 217.551C224.321 217.282 222.762 215.286 223.031 213.093Z" fill="url(#paint36_linear_316_483)"/>
<path d="M221.081 228.974C221.35 226.782 223.346 225.222 225.539 225.492L272.188 231.219C274.381 231.489 275.94 233.484 275.671 235.677C275.402 237.87 273.406 239.429 271.214 239.16L224.564 233.432C222.371 233.163 220.812 231.167 221.081 228.974Z" fill="url(#paint37_linear_316_483)"/>
<path d="M279.641 236.165C279.911 233.972 281.906 232.413 284.099 232.682L382.361 244.747C384.554 245.016 386.113 247.012 385.844 249.205C385.575 251.397 383.579 252.956 381.386 252.687L283.124 240.622C280.931 240.353 279.372 238.357 279.641 236.165Z" fill="url(#paint38_linear_316_483)"/>
<path d="M219.131 244.855C219.401 242.662 221.396 241.103 223.589 241.372L380.411 260.628C382.604 260.897 384.163 262.893 383.894 265.085C383.625 267.278 381.629 268.837 379.436 268.568L222.614 249.313C220.421 249.043 218.862 247.048 219.131 244.855Z" fill="url(#paint39_linear_316_483)"/>
<path d="M217.181 260.736C217.451 258.543 219.446 256.984 221.639 257.253L307.991 267.856C310.183 268.125 311.742 270.121 311.473 272.313C311.204 274.506 309.208 276.065 307.016 275.796L220.664 265.193C218.471 264.924 216.912 262.928 217.181 260.736Z" fill="url(#paint40_linear_316_483)"/>
<path d="M315.443 272.801C315.713 270.608 317.708 269.049 319.901 269.318L378.461 276.508C380.654 276.778 382.213 278.773 381.944 280.966C381.675 283.159 379.679 284.718 377.486 284.449L318.926 277.258C316.733 276.989 315.174 274.993 315.443 272.801Z" fill="url(#paint41_linear_316_483)"/>
<path d="M215.231 276.616C215.501 274.424 217.496 272.864 219.689 273.134L376.511 292.389C378.704 292.658 380.263 294.654 379.994 296.847C379.725 299.039 377.729 300.599 375.536 300.329L218.714 281.074C216.521 280.805 214.962 278.809 215.231 276.616Z" fill="url(#paint42_linear_316_483)"/>
<path d="M213.282 292.497C213.551 290.304 215.547 288.745 217.739 289.014L264.389 294.742C266.582 295.012 268.141 297.007 267.872 299.2C267.602 301.393 265.607 302.952 263.414 302.683L216.764 296.955C214.572 296.686 213.012 294.69 213.282 292.497Z" fill="url(#paint43_linear_316_483)"/>
<path d="M271.842 299.687C272.111 297.495 274.107 295.936 276.299 296.205L374.561 308.27C376.754 308.539 378.313 310.535 378.044 312.727C377.775 314.92 375.779 316.479 373.587 316.21L275.324 304.145C273.132 303.876 271.573 301.88 271.842 299.687Z" fill="url(#paint44_linear_316_483)"/>
<path d="M211.332 308.378C211.601 306.185 213.597 304.626 215.789 304.895L372.612 324.151C374.804 324.42 376.364 326.416 376.094 328.608C375.825 330.801 373.829 332.36 371.637 332.091L214.814 312.836C212.622 312.566 211.062 310.571 211.332 308.378Z" fill="url(#paint45_linear_316_483)"/>
<path d="M209.382 324.259C209.651 322.066 211.647 320.507 213.839 320.776L290.265 330.16C292.458 330.429 294.017 332.425 293.748 334.618C293.479 336.81 291.483 338.37 289.29 338.1L212.864 328.716C210.672 328.447 209.112 326.451 209.382 324.259Z" fill="url(#paint46_linear_316_483)"/>
<path d="M207.432 340.139C207.701 337.947 209.697 336.387 211.889 336.657L326.032 350.672C328.225 350.941 329.784 352.937 329.515 355.129C329.246 357.322 327.25 358.881 325.057 358.612L210.915 344.597C208.722 344.328 207.163 342.332 207.432 340.139Z" fill="url(#paint47_linear_316_483)"/>
<path d="M297.718 335.105C297.988 332.912 299.983 331.353 302.176 331.622L370.662 340.031C372.854 340.301 374.414 342.296 374.144 344.489C373.875 346.682 371.879 348.241 369.687 347.972L301.201 339.563C299.008 339.294 297.449 337.298 297.718 335.105Z" fill="url(#paint48_linear_316_483)"/>
</g>
<circle opacity="0.5" cx="342" cy="52" r="51.5" stroke="url(#paint49_linear_316_483)"/>
<circle opacity="0.5" cx="342" cy="52" r="39.5" stroke="url(#paint50_linear_316_483)"/>
<circle cx="342" cy="52" r="28" fill="url(#paint51_linear_316_483)"/>
<path d="M353.984 50.1107C352.807 49.3576 351.55 48.7384 350.236 48.2645L349.921 48.1463L349.972 47.8143C350.208 46.4639 350.297 45.0919 350.236 43.7223C350.045 40.2214 347.772 33 342.005 33C336.237 33 333.925 40.227 333.733 43.7223C333.673 45.0956 333.762 46.4713 333.998 47.8255L334.048 48.1576L333.733 48.2758C332.428 48.7528 331.178 49.368 330.003 50.1107C327.077 52.0244 321.962 57.6135 324.86 62.6229C326.126 64.8236 328.444 66 331.561 66C333.883 65.9707 336.171 65.4327 338.263 64.424C339.499 63.776 340.663 62.9987 341.734 62.1051L342.005 61.8743L342.263 62.0938C343.332 62.9898 344.494 63.7674 345.729 64.4128C347.825 65.4213 350.116 65.9592 352.442 65.9887C355.559 65.9887 357.877 64.8236 359.143 62.6116C362.036 57.6079 356.915 52.0244 353.984 50.1107ZM337.796 43.9475C337.924 42.4463 338.337 40.9831 339.011 39.636C339.754 38.2064 340.75 37.075 342.005 37.075C344.463 37.075 346.056 41.6116 346.191 43.9475C346.23 44.8348 346.19 45.7238 346.073 46.6041L346.016 47.0263L345.594 46.9531C344.447 46.7637 343.285 46.6789 342.123 46.6998C340.88 46.6683 339.636 46.7531 338.409 46.9531L337.993 47.0263L337.936 46.6041C337.805 45.7251 337.758 44.8355 337.796 43.9475ZM338.679 59.3302C337.976 59.8818 337.222 60.3661 336.429 60.7767C335.727 61.1186 334.989 61.3792 334.228 61.5535C333.367 61.7664 332.483 61.8797 331.595 61.8912C330.189 61.8912 328.939 61.5422 328.382 60.5854C327.156 58.4522 330.29 54.7936 332.242 53.5159C333.018 53.0243 333.837 52.606 334.69 52.2664L335.078 52.1088L335.224 52.5028C335.46 53.1308 335.731 53.7453 336.035 54.3433C336.756 55.9194 337.673 57.3982 338.764 58.7448L339.034 59.0769L338.679 59.3302ZM344.762 51.5066C344.559 52.0131 344.334 52.5253 344.081 53.0375C343.571 53.9689 342.984 54.8557 342.325 55.6886L342.005 56.0994L341.678 55.6886C340.871 54.6629 340.173 53.5555 339.596 52.3846C339.461 52.0863 339.338 51.8218 339.214 51.4953L339.017 51.0113L339.534 50.9381C340.353 50.8239 341.178 50.7638 342.005 50.758C342.825 50.7714 343.645 50.8353 344.458 50.9493L344.97 51.0225L344.762 51.5066ZM355.616 60.5797C355.323 61.0628 354.865 61.4229 354.327 61.5929C353.71 61.803 353.06 61.9021 352.408 61.8855C350.732 61.8575 349.081 61.4738 347.564 60.7598C346.772 60.343 346.019 59.8571 345.313 59.3077L344.981 59.0544L345.251 58.728C346.176 57.5788 346.974 56.3333 347.631 55.0131C348.078 54.2054 348.465 53.3664 348.79 52.5028L348.942 52.1032L349.331 52.2664C350.176 52.6074 350.987 53.0257 351.756 53.5159C353.708 54.7936 356.842 58.4522 355.616 60.5797Z" fill="url(#paint52_linear_316_483)"/>
<circle cx="37" cy="338" r="36.5" stroke="url(#paint53_linear_316_483)"/>
<circle cx="37" cy="338" r="27.5" stroke="url(#paint54_linear_316_483)"/>
<circle cx="37" cy="338" r="19" fill="url(#paint55_linear_316_483)"/>
<path d="M31.4755 335.113C32.9988 335.13 34.2198 333.899 34.2027 332.365C34.1856 330.83 32.9368 329.572 31.4135 329.555C29.8903 329.538 28.6693 330.769 28.6864 332.304C28.6885 332.498 28.7106 332.689 28.7505 332.873C28.1497 333.814 26.8281 335.059 26.0722 335.311C25.9592 335.295 25.8441 335.287 25.7273 335.285C25.6927 335.285 25.6581 335.285 25.6238 335.286C25.6204 335.283 25.617 335.28 25.6137 335.277L25.6238 335.286C24.1494 335.325 22.9835 336.534 23.0002 338.034C23.0173 339.569 24.266 340.826 25.7893 340.843C27.2777 340.86 28.4775 339.685 28.5157 338.2L28.5244 338.209C28.5214 338.206 28.5185 338.203 28.5157 338.2C28.5166 338.165 28.5169 338.13 28.5165 338.095C28.515 337.965 28.5047 337.837 28.4862 337.711C28.7388 336.939 29.9427 335.637 30.8736 335.04C31.0676 335.086 31.269 335.111 31.4755 335.113Z" fill="url(#paint56_linear_316_483)"/>
<path d="M44.6141 334.321C43.9288 335.009 42.9649 335.247 42.075 335.039C41.1446 335.635 39.9382 336.939 39.6853 337.711C39.7093 337.873 39.7184 338.034 39.7152 338.198C39.698 338.874 39.4341 339.539 38.9293 340.05C38.422 340.562 37.7542 340.825 37.0813 340.84C36.3442 340.857 35.5965 340.58 35.0281 340.008C33.941 338.91 33.9217 337.151 34.9849 336.077C35.4897 335.566 36.1526 335.302 36.8206 335.285C36.8871 335.283 36.9538 335.284 37.0203 335.287C37.1042 335.29 37.1881 335.296 37.2721 335.31C38.0263 335.059 39.3491 333.812 39.9478 332.872C39.7581 331.983 39.9967 331.029 40.6698 330.348C41.7355 329.274 43.4814 329.293 44.571 330.391C45.6605 331.488 45.6798 333.247 44.6141 334.321Z" fill="url(#paint57_linear_316_483)"/>
<path d="M38.9877 328.836C38.2837 329.546 37.298 329.802 36.3928 329.601C35.8874 329.487 35.4046 329.234 35.0124 328.836C33.9135 327.729 33.9135 325.936 35.0124 324.828C35.4046 324.431 35.8874 324.177 36.3928 324.063C36.5487 324.03 36.7046 324.008 36.863 324H37.1346C37.8059 324.033 38.4723 324.309 38.9877 324.828C40.0865 325.936 40.0865 327.729 38.9877 328.836Z" fill="url(#paint58_linear_316_483)"/>
<path d="M50.2131 339.899C49.5303 340.587 48.5638 340.825 47.6739 340.619C46.7435 341.213 45.5372 342.516 45.2843 343.289C45.3083 343.45 45.3175 343.612 45.3144 343.776C45.2971 344.451 45.0356 345.117 44.5284 345.628C43.4626 346.7 41.7166 346.681 40.6271 345.586C39.54 344.488 39.5207 342.729 40.584 341.655C41.0913 341.144 41.7517 340.88 42.4197 340.863C42.57 340.859 42.7204 340.866 42.8686 340.887C43.6228 340.637 44.948 339.39 45.5468 338.45C45.3571 337.561 45.5957 336.607 46.2688 335.926C47.3345 334.852 49.0805 334.871 50.17 335.968C51.2596 337.066 51.2789 338.825 50.2131 339.899Z" fill="url(#paint59_linear_316_483)"/>
<path d="M34.0908 343.805C34.106 343.692 34.1145 343.576 34.1157 343.459C34.1326 341.925 32.9116 340.694 31.3885 340.711C29.8655 340.727 28.6171 341.985 28.6003 343.519C28.5838 345.019 29.7492 346.228 31.2234 346.267C31.2579 346.268 31.2927 346.268 31.3275 346.268C31.4549 346.266 31.5803 346.256 31.7033 346.238L31.7053 346.239C32.472 346.491 33.7657 347.707 34.3572 348.645C34.1501 349.542 34.386 350.516 35.0714 351.207C35.4251 351.563 35.8492 351.797 36.3018 351.914C37.2191 352.15 38.2429 351.9 38.9712 351.164C40.0611 350.066 40.0804 348.307 39.0144 347.235C38.3412 346.554 37.3918 346.313 36.5117 346.507C36.4627 346.475 36.4138 346.443 36.3624 346.404C35.4507 345.764 34.3242 344.526 34.0908 343.805Z" fill="url(#paint60_linear_316_483)"/>
<path d="M460 280.5H528C531.038 280.5 533.5 282.962 533.5 286V342C533.5 345.038 531.038 347.5 528 347.5H460C456.962 347.5 454.5 345.038 454.5 342V286L454.507 285.717C454.654 282.811 457.057 280.5 460 280.5Z" fill="url(#paint61_linear_316_483)" stroke="url(#paint62_linear_316_483)"/>
<path d="M487.037 317.375C487.584 317.375 488.047 317.786 488.111 318.333L488.299 319.963C489.103 320.172 489.872 320.484 490.595 320.891L491.865 319.886C492.297 319.544 492.913 319.582 493.302 319.967L495.106 321.771C495.496 322.161 495.53 322.777 495.188 323.209L494.2 324.462C494.611 325.172 494.931 325.929 495.145 326.72L496.667 326.896C497.214 326.96 497.625 327.421 497.625 327.969V330.521C497.625 331.069 497.214 331.532 496.667 331.596L495.166 331.771C494.961 332.553 494.653 333.302 494.26 334.003L495.184 335.171C495.525 335.603 495.487 336.218 495.103 336.607L493.302 338.408C492.913 338.797 492.297 338.831 491.865 338.489L490.732 337.592C489.997 338.024 489.21 338.353 488.385 338.575L488.214 340.042C488.15 340.589 487.688 341 487.141 341H484.588C484.041 341 483.578 340.589 483.514 340.042L483.343 338.575C482.496 338.349 481.688 338.007 480.936 337.558L479.76 338.489C479.328 338.831 478.712 338.793 478.323 338.408L476.519 336.604C476.129 336.214 476.095 335.598 476.438 335.166L477.421 333.922C477.028 333.212 476.728 332.455 476.531 331.668L474.958 331.488C474.411 331.424 474 330.962 474 330.415V327.861C474 327.314 474.411 326.852 474.958 326.788L476.617 326.596C476.827 325.877 477.118 325.184 477.485 324.534L476.438 323.213C476.095 322.781 476.134 322.165 476.519 321.775L478.323 319.971C478.712 319.582 479.328 319.548 479.76 319.89L481.072 320.929C481.748 320.539 482.467 320.236 483.215 320.022L483.411 318.333C483.475 317.786 483.937 317.375 484.484 317.375H487.037ZM485.866 325.061C483.54 325.061 481.646 326.955 481.646 329.281C481.646 331.608 483.54 333.503 485.866 333.503C488.192 333.503 490.086 331.608 490.086 329.281C490.086 326.955 488.192 325.061 485.866 325.061ZM506.981 306.875C507.448 306.875 507.841 307.225 507.896 307.691L508.056 309.079C508.74 309.258 509.396 309.523 510.012 309.869L511.094 309.014C511.462 308.722 511.986 308.755 512.317 309.083L513.854 310.62C514.186 310.952 514.215 311.476 513.924 311.844L513.082 312.912C513.432 313.517 513.706 314.161 513.888 314.835L515.184 314.984C515.65 315.039 516 315.433 516 315.899V318.074C516 318.54 515.65 318.934 515.184 318.988L513.905 319.138C513.73 319.804 513.469 320.443 513.134 321.04L513.92 322.034C514.211 322.402 514.178 322.927 513.851 323.259L512.317 324.792C511.986 325.123 511.462 325.153 511.094 324.861L510.128 324.097C509.502 324.464 508.832 324.745 508.129 324.935L507.982 326.184C507.928 326.65 507.535 327 507.068 327H504.894C504.427 327 504.034 326.65 503.979 326.184L503.834 324.935C503.113 324.741 502.424 324.45 501.783 324.067L500.781 324.861C500.413 325.153 499.889 325.12 499.558 324.792L498.021 323.255C497.689 322.923 497.66 322.398 497.951 322.03L498.789 320.971C498.454 320.366 498.199 319.721 498.031 319.051L496.69 318.897C496.225 318.843 495.875 318.449 495.875 317.983V315.808C495.875 315.342 496.225 314.948 496.69 314.894L498.104 314.729C498.283 314.118 498.531 313.527 498.844 312.974L497.951 311.848C497.66 311.48 497.693 310.956 498.021 310.624L499.558 309.086C499.889 308.755 500.413 308.726 500.781 309.018L501.899 309.902C502.475 309.571 503.087 309.312 503.725 309.13L503.893 307.691C503.947 307.225 504.34 306.875 504.807 306.875H506.981ZM505.983 313.422C504.002 313.422 502.388 315.036 502.388 317.018C502.388 318.999 504.002 320.613 505.983 320.613C507.965 320.613 509.578 318.999 509.578 317.018C509.578 315.036 507.965 313.422 505.983 313.422ZM490.175 299C490.56 299 490.884 299.289 490.93 299.674L491.062 300.821C491.628 300.969 492.169 301.188 492.678 301.474L493.572 300.767C493.876 300.526 494.309 300.553 494.583 300.824L495.853 302.094C496.126 302.368 496.151 302.801 495.91 303.105L495.215 303.987C495.504 304.487 495.729 305.019 495.88 305.576L496.951 305.699C497.336 305.744 497.625 306.07 497.625 306.455V308.252C497.625 308.637 497.336 308.962 496.951 309.007L495.895 309.131C495.75 309.681 495.534 310.208 495.257 310.701L495.907 311.523C496.148 311.827 496.12 312.26 495.85 312.534L494.583 313.802C494.309 314.075 493.876 314.099 493.572 313.858L492.774 313.227C492.257 313.531 491.703 313.762 491.122 313.919L491.002 314.951C490.957 315.336 490.632 315.625 490.247 315.625H488.45C488.065 315.625 487.741 315.336 487.695 314.951L487.575 313.919C486.979 313.759 486.41 313.518 485.881 313.202L485.054 313.858C484.75 314.099 484.316 314.072 484.042 313.802L482.772 312.531C482.499 312.257 482.474 311.824 482.715 311.52L483.407 310.645C483.13 310.145 482.92 309.612 482.781 309.059L481.674 308.932C481.289 308.886 481 308.562 481 308.177V306.38C481 305.995 481.289 305.669 481.674 305.624L482.842 305.488C482.989 304.983 483.193 304.495 483.452 304.038L482.715 303.108C482.474 302.804 482.502 302.371 482.772 302.097L484.042 300.827C484.316 300.553 484.749 300.529 485.053 300.77L485.977 301.501C486.452 301.227 486.958 301.014 487.484 300.863L487.623 299.674C487.668 299.289 487.993 299 488.378 299H490.175ZM489.351 304.408C487.714 304.408 486.38 305.742 486.38 307.379C486.38 309.016 487.714 310.35 489.351 310.35C490.987 310.349 492.32 309.016 492.32 307.379C492.32 305.742 490.987 304.408 489.351 304.408Z" fill="url(#paint63_linear_316_483)"/>
<path d="M455 291H533V292H455V291Z" fill="#C5D9FF"/>
<defs>
<filter id="filter0_d_316_483" x="190.58" y="128.017" width="279.095" height="298.221" filterUnits="userSpaceOnUse" color-interpolation-filters="sRGB">
<feFlood flood-opacity="0" result="BackgroundImageFix"/>
<feColorMatrix in="SourceAlpha" type="matrix" values="0 0 0 0 0 0 0 0 0 0 0 0 0 0 0 0 0 0 127 0" result="hardAlpha"/>
<feOffset dy="5"/>
<feGaussianBlur stdDeviation="5"/>
<feComposite in2="hardAlpha" operator="out"/>
<feColorMatrix type="matrix" values="0 0 0 0 0 0 0 0 0 0 0 0 0 0 0 0 0 0 0.1 0"/>
<feBlend mode="normal" in2="BackgroundImageFix" result="effect1_dropShadow_316_483"/>
<feBlend mode="normal" in="SourceGraphic" in2="effect1_dropShadow_316_483" result="shape"/>
</filter>
<filter id="filter1_d_316_483" x="41.5323" y="78.219" width="269.329" height="299.027" filterUnits="userSpaceOnUse" color-interpolation-filters="sRGB">
<feFlood flood-opacity="0" result="BackgroundImageFix"/>
<feColorMatrix in="SourceAlpha" type="matrix" values="0 0 0 0 0 0 0 0 0 0 0 0 0 0 0 0 0 0 127 0" result="hardAlpha"/>
<feOffset dy="5"/>
<feGaussianBlur stdDeviation="5"/>
<feComposite in2="hardAlpha" operator="out"/>
<feColorMatrix type="matrix" values="0 0 0 0 0 0 0 0 0 0 0 0 0 0 0 0 0 0 0.1 0"/>
<feBlend mode="normal" in2="BackgroundImageFix" result="effect1_dropShadow_316_483"/>
<feBlend mode="normal" in="SourceGraphic" in2="effect1_dropShadow_316_483" result="shape"/>
</filter>
<filter id="filter2_d_316_483" x="47.5323" y="83.219" width="205.695" height="93.4462" filterUnits="userSpaceOnUse" color-interpolation-filters="sRGB">
<feFlood flood-opacity="0" result="BackgroundImageFix"/>
<feColorMatrix in="SourceAlpha" type="matrix" values="0 0 0 0 0 0 0 0 0 0 0 0 0 0 0 0 0 0 127 0" result="hardAlpha"/>
<feOffset dy="4"/>
<feGaussianBlur stdDeviation="2"/>
<feComposite in2="hardAlpha" operator="out"/>
<feColorMatrix type="matrix" values="0 0 0 0 0.903846 0 0 0 0 0.71159 0 0 0 0 0.443232 0 0 0 0.5 0"/>
<feBlend mode="normal" in2="BackgroundImageFix" result="effect1_dropShadow_316_483"/>
<feBlend mode="normal" in="SourceGraphic" in2="effect1_dropShadow_316_483" result="shape"/>
</filter>
<filter id="filter3_d_316_483" x="132.677" y="123.816" width="44.006" height="44.006" filterUnits="userSpaceOnUse" color-interpolation-filters="sRGB">
<feFlood flood-opacity="0" result="BackgroundImageFix"/>
<feColorMatrix in="SourceAlpha" type="matrix" values="0 0 0 0 0 0 0 0 0 0 0 0 0 0 0 0 0 0 127 0" result="hardAlpha"/>
<feOffset dy="4"/>
<feGaussianBlur stdDeviation="5"/>
<feComposite in2="hardAlpha" operator="out"/>
<feColorMatrix type="matrix" values="0 0 0 0 0.764423 0 0 0 0 0.572384 0 0 0 0 0.305034 0 0 0 1 0"/>
<feBlend mode="normal" in2="BackgroundImageFix" result="effect1_dropShadow_316_483"/>
<feBlend mode="normal" in="SourceGraphic" in2="effect1_dropShadow_316_483" result="shape"/>
</filter>
<filter id="filter4_d_316_483" x="148.465" y="182.738" width="44.006" height="44.006" filterUnits="userSpaceOnUse" color-interpolation-filters="sRGB">
<feFlood flood-opacity="0" result="BackgroundImageFix"/>
<feColorMatrix in="SourceAlpha" type="matrix" values="0 0 0 0 0 0 0 0 0 0 0 0 0 0 0 0 0 0 127 0" result="hardAlpha"/>
<feOffset dy="4"/>
<feGaussianBlur stdDeviation="5"/>
<feComposite in2="hardAlpha" operator="out"/>
<feColorMatrix type="matrix" values="0 0 0 0 0.764423 0 0 0 0 0.572384 0 0 0 0 0.305034 0 0 0 1 0"/>
<feBlend mode="normal" in2="BackgroundImageFix" result="effect1_dropShadow_316_483"/>
<feBlend mode="normal" in="SourceGraphic" in2="effect1_dropShadow_316_483" result="shape"/>
</filter>
<filter id="filter5_i_316_483" x="162.974" y="193.3" width="14.986" height="15.9619" filterUnits="userSpaceOnUse" color-interpolation-filters="sRGB">
<feFlood flood-opacity="0" result="BackgroundImageFix"/>
<feBlend mode="normal" in="SourceGraphic" in2="BackgroundImageFix" result="shape"/>
<feColorMatrix in="SourceAlpha" type="matrix" values="0 0 0 0 0 0 0 0 0 0 0 0 0 0 0 0 0 0 127 0" result="hardAlpha"/>
<feOffset dy="1"/>
<feGaussianBlur stdDeviation="1"/>
<feComposite in2="hardAlpha" operator="arithmetic" k2="-1" k3="1"/>
<feColorMatrix type="matrix" values="0 0 0 0 0 0 0 0 0 0 0 0 0 0 0 0 0 0 0.1 0"/>
<feBlend mode="normal" in2="shape" result="effect1_innerShadow_316_483"/>
</filter>
<filter id="filter6_d_316_483" x="180.257" y="115.972" width="239.511" height="280.055" filterUnits="userSpaceOnUse" color-interpolation-filters="sRGB">
<feFlood flood-opacity="0" result="BackgroundImageFix"/>
<feColorMatrix in="SourceAlpha" type="matrix" values="0 0 0 0 0 0 0 0 0 0 0 0 0 0 0 0 0 0 127 0" result="hardAlpha"/>
<feOffset dy="5"/>
<feGaussianBlur stdDeviation="5"/>
<feComposite in2="hardAlpha" operator="out"/>
<feColorMatrix type="matrix" values="0 0 0 0 0 0 0 0 0 0 0 0 0 0 0 0 0 0 0.1 0"/>
<feBlend mode="normal" in2="BackgroundImageFix" result="effect1_dropShadow_316_483"/>
<feBlend mode="normal" in="SourceGraphic" in2="effect1_dropShadow_316_483" result="shape"/>
</filter>
<linearGradient id="paint0_linear_316_483" x1="95.1214" y1="397.424" x2="490.11" y2="218.463" gradientUnits="userSpaceOnUse">
<stop stop-color="#E8EFFF"/>
<stop offset="1" stop-color="white"/>
</linearGradient>
<linearGradient id="paint1_linear_316_483" x1="494.461" y1="166" x2="74.9476" y2="384.247" gradientUnits="userSpaceOnUse">
<stop stop-color="#D9E8FF"/>
<stop offset="1" stop-color="#F3F7FF"/>
</linearGradient>
<linearGradient id="paint2_linear_316_483" x1="119.737" y1="120.5" x2="239.737" y2="328.346" gradientUnits="userSpaceOnUse">
<stop stop-color="#DBE7FF"/>
<stop offset="1" stop-color="#BDD4FF"/>
</linearGradient>
<linearGradient id="paint3_linear_316_483" x1="274.72" y1="134.901" x2="380.404" y2="423.449" gradientUnits="userSpaceOnUse">
<stop stop-color="#91B9FF"/>
<stop offset="1" stop-color="#3C82FF"/>
</linearGradient>
<linearGradient id="paint4_linear_316_483" x1="262.735" y1="214.609" x2="418.724" y2="271.384" gradientUnits="userSpaceOnUse">
<stop stop-color="white" stop-opacity="0.7"/>
<stop offset="1" stop-color="white" stop-opacity="0.4"/>
</linearGradient>
<linearGradient id="paint5_linear_316_483" x1="257.263" y1="229.644" x2="308.946" y2="248.455" gradientUnits="userSpaceOnUse">
<stop stop-color="white" stop-opacity="0.7"/>
<stop offset="1" stop-color="white" stop-opacity="0.4"/>
</linearGradient>
<linearGradient id="paint6_linear_316_483" x1="312.705" y1="249.823" x2="413.252" y2="286.42" gradientUnits="userSpaceOnUse">
<stop stop-color="white" stop-opacity="0.7"/>
<stop offset="1" stop-color="white" stop-opacity="0.4"/>
</linearGradient>
<linearGradient id="paint7_linear_316_483" x1="251.791" y1="244.679" x2="407.78" y2="301.455" gradientUnits="userSpaceOnUse">
<stop stop-color="white" stop-opacity="0.7"/>
<stop offset="1" stop-color="white" stop-opacity="0.4"/>
</linearGradient>
<linearGradient id="paint8_linear_316_483" x1="246.318" y1="259.714" x2="335.589" y2="292.206" gradientUnits="userSpaceOnUse">
<stop stop-color="white" stop-opacity="0.7"/>
<stop offset="1" stop-color="white" stop-opacity="0.4"/>
</linearGradient>
<linearGradient id="paint9_linear_316_483" x1="339.348" y1="293.574" x2="402.307" y2="316.49" gradientUnits="userSpaceOnUse">
<stop stop-color="white" stop-opacity="0.7"/>
<stop offset="1" stop-color="white" stop-opacity="0.4"/>
</linearGradient>
<linearGradient id="paint10_linear_316_483" x1="240.846" y1="274.749" x2="396.835" y2="331.525" gradientUnits="userSpaceOnUse">
<stop stop-color="white" stop-opacity="0.7"/>
<stop offset="1" stop-color="white" stop-opacity="0.4"/>
</linearGradient>
<linearGradient id="paint11_linear_316_483" x1="284.624" y1="154.469" x2="336.308" y2="173.28" gradientUnits="userSpaceOnUse">
<stop stop-color="white" stop-opacity="0.7"/>
<stop offset="1" stop-color="white" stop-opacity="0.4"/>
</linearGradient>
<linearGradient id="paint12_linear_316_483" x1="279.152" y1="169.504" x2="435.141" y2="226.279" gradientUnits="userSpaceOnUse">
<stop stop-color="white" stop-opacity="0.7"/>
<stop offset="1" stop-color="white" stop-opacity="0.4"/>
</linearGradient>
<linearGradient id="paint13_linear_316_483" x1="273.68" y1="184.539" x2="362.951" y2="217.031" gradientUnits="userSpaceOnUse">
<stop stop-color="white" stop-opacity="0.7"/>
<stop offset="1" stop-color="white" stop-opacity="0.4"/>
</linearGradient>
<linearGradient id="paint14_linear_316_483" x1="366.709" y1="218.399" x2="429.669" y2="241.314" gradientUnits="userSpaceOnUse">
<stop stop-color="white" stop-opacity="0.7"/>
<stop offset="1" stop-color="white" stop-opacity="0.4"/>
</linearGradient>
<linearGradient id="paint15_linear_316_483" x1="268.207" y1="199.574" x2="424.196" y2="256.349" gradientUnits="userSpaceOnUse">
<stop stop-color="white" stop-opacity="0.7"/>
<stop offset="1" stop-color="white" stop-opacity="0.4"/>
</linearGradient>
<linearGradient id="paint16_linear_316_483" x1="235.374" y1="289.785" x2="287.057" y2="308.596" gradientUnits="userSpaceOnUse">
<stop stop-color="white" stop-opacity="0.7"/>
<stop offset="1" stop-color="white" stop-opacity="0.4"/>
</linearGradient>
<linearGradient id="paint17_linear_316_483" x1="290.816" y1="309.964" x2="391.363" y2="346.56" gradientUnits="userSpaceOnUse">
<stop stop-color="white" stop-opacity="0.7"/>
<stop offset="1" stop-color="white" stop-opacity="0.4"/>
</linearGradient>
<linearGradient id="paint18_linear_316_483" x1="229.901" y1="304.82" x2="385.89" y2="361.595" gradientUnits="userSpaceOnUse">
<stop stop-color="white" stop-opacity="0.7"/>
<stop offset="1" stop-color="white" stop-opacity="0.4"/>
</linearGradient>
<linearGradient id="paint19_linear_316_483" x1="224.429" y1="319.855" x2="304.303" y2="348.926" gradientUnits="userSpaceOnUse">
<stop stop-color="white" stop-opacity="0.7"/>
<stop offset="1" stop-color="white" stop-opacity="0.4"/>
</linearGradient>
<linearGradient id="paint20_linear_316_483" x1="144.397" y1="107.305" x2="205.996" y2="337.195" gradientUnits="userSpaceOnUse">
<stop stop-color="#FFD99E"/>
<stop offset="1" stop-color="#D38522"/>
</linearGradient>
<linearGradient id="paint21_linear_316_483" x1="145.363" y1="107.046" x2="160.633" y2="164.036" gradientUnits="userSpaceOnUse">
<stop stop-color="#FFECCF"/>
<stop offset="1" stop-color="#FFD697"/>
</linearGradient>
<linearGradient id="paint22_linear_316_483" x1="151.984" y1="133.334" x2="151.984" y2="218.334" gradientUnits="userSpaceOnUse">
<stop stop-color="#E9B46F"/>
<stop offset="1" stop-color="#B37D38"/>
</linearGradient>
<linearGradient id="paint23_linear_316_483" x1="154.68" y1="129.819" x2="154.68" y2="153.819" gradientUnits="userSpaceOnUse">
<stop stop-color="white"/>
<stop offset="1" stop-color="#FFE6BE"/>
</linearGradient>
<linearGradient id="paint24_linear_316_483" x1="170.468" y1="188.741" x2="170.468" y2="212.741" gradientUnits="userSpaceOnUse">
<stop stop-color="white"/>
<stop offset="1" stop-color="#FFE6BE"/>
</linearGradient>
<linearGradient id="paint25_linear_316_483" x1="123.148" y1="329.371" x2="275.764" y2="288.478" gradientUnits="userSpaceOnUse">
<stop stop-color="white" stop-opacity="0.8"/>
<stop offset="1" stop-color="white" stop-opacity="0.3"/>
</linearGradient>
<linearGradient id="paint26_linear_316_483" x1="123.148" y1="329.371" x2="275.764" y2="288.478" gradientUnits="userSpaceOnUse">
<stop stop-color="white" stop-opacity="0.8"/>
<stop offset="1" stop-color="white" stop-opacity="0.3"/>
</linearGradient>
<linearGradient id="paint27_linear_316_483" x1="123.148" y1="329.371" x2="275.764" y2="288.478" gradientUnits="userSpaceOnUse">
<stop stop-color="white" stop-opacity="0.8"/>
<stop offset="1" stop-color="white" stop-opacity="0.3"/>
</linearGradient>
<linearGradient id="paint28_linear_316_483" x1="123.148" y1="329.371" x2="275.764" y2="288.478" gradientUnits="userSpaceOnUse">
<stop stop-color="white" stop-opacity="0.8"/>
<stop offset="1" stop-color="white" stop-opacity="0.3"/>
</linearGradient>
<linearGradient id="paint29_linear_316_483" x1="123.148" y1="329.371" x2="275.764" y2="288.478" gradientUnits="userSpaceOnUse">
<stop stop-color="white" stop-opacity="0.8"/>
<stop offset="1" stop-color="white" stop-opacity="0.3"/>
</linearGradient>
<linearGradient id="paint30_linear_316_483" x1="123.148" y1="329.371" x2="275.764" y2="288.478" gradientUnits="userSpaceOnUse">
<stop stop-color="white" stop-opacity="0.8"/>
<stop offset="1" stop-color="white" stop-opacity="0.3"/>
</linearGradient>
<linearGradient id="paint31_linear_316_483" x1="123.148" y1="329.371" x2="275.764" y2="288.478" gradientUnits="userSpaceOnUse">
<stop stop-color="white" stop-opacity="0.8"/>
<stop offset="1" stop-color="white" stop-opacity="0.3"/>
</linearGradient>
<linearGradient id="paint32_linear_316_483" x1="123.148" y1="329.371" x2="275.764" y2="288.478" gradientUnits="userSpaceOnUse">
<stop stop-color="white" stop-opacity="0.8"/>
<stop offset="1" stop-color="white" stop-opacity="0.3"/>
</linearGradient>
<linearGradient id="paint33_linear_316_483" x1="391" y1="162" x2="372" y2="177.5" gradientUnits="userSpaceOnUse">
<stop stop-color="white"/>
<stop offset="1" stop-color="#E1E6F0"/>
</linearGradient>
<linearGradient id="paint34_linear_316_483" x1="260.416" y1="179.398" x2="355.018" y2="191.014" gradientUnits="userSpaceOnUse">
<stop stop-color="#19A5FF"/>
<stop offset="0.509615" stop-color="#27CEBF"/>
<stop offset="1" stop-color="#2FE250"/>
</linearGradient>
<linearGradient id="paint35_linear_316_483" x1="276.576" y1="195.488" x2="337.121" y2="202.922" gradientUnits="userSpaceOnUse">
<stop stop-color="#19A5FF"/>
<stop offset="0.509615" stop-color="#27CEBF"/>
<stop offset="1" stop-color="#2FE250"/>
</linearGradient>
<linearGradient id="paint36_linear_316_483" x1="223.031" y1="213.093" x2="387.794" y2="233.324" gradientUnits="userSpaceOnUse">
<stop stop-color="#DCE1EB"/>
<stop offset="1" stop-color="#C8CDD7"/>
</linearGradient>
<linearGradient id="paint37_linear_316_483" x1="221.081" y1="228.974" x2="275.671" y2="235.677" gradientUnits="userSpaceOnUse">
<stop stop-color="#DCE1EB"/>
<stop offset="1" stop-color="#C8CDD7"/>
</linearGradient>
<linearGradient id="paint38_linear_316_483" x1="279.641" y1="236.165" x2="385.844" y2="249.205" gradientUnits="userSpaceOnUse">
<stop stop-color="#DCE1EB"/>
<stop offset="1" stop-color="#C8CDD7"/>
</linearGradient>
<linearGradient id="paint39_linear_316_483" x1="219.131" y1="244.855" x2="383.894" y2="265.085" gradientUnits="userSpaceOnUse">
<stop stop-color="#DCE1EB"/>
<stop offset="1" stop-color="#C8CDD7"/>
</linearGradient>
<linearGradient id="paint40_linear_316_483" x1="217.181" y1="260.736" x2="311.473" y2="272.313" gradientUnits="userSpaceOnUse">
<stop stop-color="#DCE1EB"/>
<stop offset="1" stop-color="#C8CDD7"/>
</linearGradient>
<linearGradient id="paint41_linear_316_483" x1="315.443" y1="272.801" x2="381.944" y2="280.966" gradientUnits="userSpaceOnUse">
<stop stop-color="#DCE1EB"/>
<stop offset="1" stop-color="#C8CDD7"/>
</linearGradient>
<linearGradient id="paint42_linear_316_483" x1="215.231" y1="276.616" x2="379.994" y2="296.847" gradientUnits="userSpaceOnUse">
<stop stop-color="#DCE1EB"/>
<stop offset="1" stop-color="#C8CDD7"/>
</linearGradient>
<linearGradient id="paint43_linear_316_483" x1="213.282" y1="292.497" x2="267.872" y2="299.2" gradientUnits="userSpaceOnUse">
<stop stop-color="#DCE1EB"/>
<stop offset="1" stop-color="#C8CDD7"/>
</linearGradient>
<linearGradient id="paint44_linear_316_483" x1="271.842" y1="299.687" x2="378.044" y2="312.727" gradientUnits="userSpaceOnUse">
<stop stop-color="#DCE1EB"/>
<stop offset="1" stop-color="#C8CDD7"/>
</linearGradient>
<linearGradient id="paint45_linear_316_483" x1="211.332" y1="308.378" x2="376.094" y2="328.608" gradientUnits="userSpaceOnUse">
<stop stop-color="#DCE1EB"/>
<stop offset="1" stop-color="#C8CDD7"/>
</linearGradient>
<linearGradient id="paint46_linear_316_483" x1="209.382" y1="324.259" x2="293.748" y2="334.618" gradientUnits="userSpaceOnUse">
<stop stop-color="#DCE1EB"/>
<stop offset="1" stop-color="#C8CDD7"/>
</linearGradient>
<linearGradient id="paint47_linear_316_483" x1="207.432" y1="340.139" x2="329.515" y2="355.129" gradientUnits="userSpaceOnUse">
<stop stop-color="#DCE1EB"/>
<stop offset="1" stop-color="#C8CDD7"/>
</linearGradient>
<linearGradient id="paint48_linear_316_483" x1="297.718" y1="335.105" x2="374.144" y2="344.489" gradientUnits="userSpaceOnUse">
<stop stop-color="#DCE1EB"/>
<stop offset="1" stop-color="#C8CDD7"/>
</linearGradient>
<linearGradient id="paint49_linear_316_483" x1="342" y1="0" x2="342" y2="104" gradientUnits="userSpaceOnUse">
<stop stop-color="#37EB55"/>
<stop offset="1" stop-color="#38AFFD"/>
</linearGradient>
<linearGradient id="paint50_linear_316_483" x1="342" y1="12" x2="342" y2="92" gradientUnits="userSpaceOnUse">
<stop stop-color="#509EFF"/>
<stop offset="1" stop-color="#37EB55"/>
</linearGradient>
<linearGradient id="paint51_linear_316_483" x1="326.25" y1="31.875" x2="347.907" y2="80.5844" gradientUnits="userSpaceOnUse">
<stop stop-color="#5996FF"/>
<stop offset="0.514423" stop-color="#38C899"/>
<stop offset="1" stop-color="#14D834"/>
</linearGradient>
<linearGradient id="paint52_linear_316_483" x1="342" y1="33" x2="342" y2="66" gradientUnits="userSpaceOnUse">
<stop stop-color="white"/>
<stop offset="1" stop-color="white" stop-opacity="0.5"/>
</linearGradient>
<linearGradient id="paint53_linear_316_483" x1="37" y1="301" x2="37" y2="375" gradientUnits="userSpaceOnUse">
<stop stop-color="#B2CAFF"/>
<stop offset="0.480769" stop-color="#FFC2CB"/>
<stop offset="1" stop-color="#FF6C90"/>
</linearGradient>
<linearGradient id="paint54_linear_316_483" x1="37" y1="310" x2="37" y2="366" gradientUnits="userSpaceOnUse">
<stop stop-color="#FF7D50"/>
<stop offset="0.485577" stop-color="#F9BCBB"/>
<stop offset="1" stop-color="#A3C0FF"/>
</linearGradient>
<linearGradient id="paint55_linear_316_483" x1="22.0714" y1="325.786" x2="41.8423" y2="357.216" gradientUnits="userSpaceOnUse">
<stop stop-color="#FF804C"/>
<stop offset="1" stop-color="#FF5082"/>
</linearGradient>
<linearGradient id="paint56_linear_316_483" x1="37" y1="324" x2="37" y2="352" gradientUnits="userSpaceOnUse">
<stop stop-color="white"/>
<stop offset="1" stop-color="white" stop-opacity="0.5"/>
</linearGradient>
<linearGradient id="paint57_linear_316_483" x1="37" y1="324" x2="37" y2="352" gradientUnits="userSpaceOnUse">
<stop stop-color="white"/>
<stop offset="1" stop-color="white" stop-opacity="0.5"/>
</linearGradient>
<linearGradient id="paint58_linear_316_483" x1="37" y1="324" x2="37" y2="352" gradientUnits="userSpaceOnUse">
<stop stop-color="white"/>
<stop offset="1" stop-color="white" stop-opacity="0.5"/>
</linearGradient>
<linearGradient id="paint59_linear_316_483" x1="37" y1="324" x2="37" y2="352" gradientUnits="userSpaceOnUse">
<stop stop-color="white"/>
<stop offset="1" stop-color="white" stop-opacity="0.5"/>
</linearGradient>
<linearGradient id="paint60_linear_316_483" x1="37" y1="324" x2="37" y2="352" gradientUnits="userSpaceOnUse">
<stop stop-color="white"/>
<stop offset="1" stop-color="white" stop-opacity="0.5"/>
</linearGradient>
<linearGradient id="paint61_linear_316_483" x1="494" y1="280" x2="494" y2="346" gradientUnits="userSpaceOnUse">
<stop stop-color="white"/>
<stop offset="1" stop-color="#DEE9FF"/>
</linearGradient>
<linearGradient id="paint62_linear_316_483" x1="494" y1="280" x2="495" y2="346" gradientUnits="userSpaceOnUse">
<stop stop-color="#C5D9FF"/>
<stop offset="1" stop-color="#DEE9FF"/>
</linearGradient>
<linearGradient id="paint63_linear_316_483" x1="495" y1="299" x2="495" y2="341" gradientUnits="userSpaceOnUse">
<stop stop-color="#9E93FF"/>
<stop offset="1" stop-color="#7161FF"/>
</linearGradient>
</defs>
</svg>
