<svg width="100" height="85" viewBox="0 0 100 85" fill="none" xmlns="http://www.w3.org/2000/svg">
<g filter="url(#filter0_f_458_145)">
<path d="M45 4L96 12V81L45 73V4Z" fill="url(#paint0_linear_458_145)"/>
</g>
<rect x="0.5" y="3.5" width="71" height="71" rx="7.5" fill="white" stroke="#F0F2F6"/>
<path d="M59.9494 37.9862C59.899 37.8342 59.899 37.6314 59.899 37.4792C59.3936 33.5253 56.8674 30.2811 53.078 28.8111C49.0864 27.2396 44.64 28.0507 41.457 30.8387L37.92 33.9309L41.76 37.3273L44.7916 34.6406C46.56 33.1198 49.0358 32.6636 51.259 33.5253C53.078 34.235 54.2906 35.553 54.7454 37.3273C54.7958 37.5806 54.8464 37.8342 54.897 38.0876C54.9474 38.3917 54.998 38.6959 54.998 39C54.998 39.3042 54.9474 39.6083 54.897 39.9124C54.6442 42.0415 53.3306 43.7142 51.259 44.4747C50.8546 44.6267 50.501 44.7281 50.097 44.8295C49.6926 44.8802 49.339 44.9308 48.9346 44.9308C47.419 44.9308 45.9536 44.3733 44.7916 43.3595L30.5432 30.8387C28.4211 28.9631 25.7937 28 23.0653 28C21.6505 28 20.2863 28.2535 18.9221 28.8111C15.1326 30.2811 12.6063 33.5253 12.1011 37.4792C12.0505 37.9862 12 38.4931 12 39C12 39.3549 12.0505 39.7097 12.0505 40.0644C12.0505 40.2166 12.0505 40.3686 12.1011 40.5208C12.6063 44.5253 15.1326 47.7696 18.9221 49.1889C20.2863 49.7465 21.7011 50 23.0653 50C25.7937 50 28.4211 49.0369 30.5432 47.1613L34.08 44.0692L30.24 40.7235L27.2084 43.3595C25.44 44.9308 22.9642 45.3364 20.7411 44.4747C18.9221 43.765 17.7095 42.3963 17.2547 40.6727C17.1537 40.4194 17.1032 40.1658 17.1032 39.9124C17.0526 39.6083 17.0526 39.3042 17.0526 39C17.0526 38.6959 17.1032 38.3917 17.1032 38.0876C17.3558 35.9585 18.72 34.3364 20.7411 33.5253C21.4989 33.2212 22.3074 33.0691 23.0653 33.0691C24.5811 33.0691 26.0463 33.6267 27.2084 34.6406L41.457 47.1613C43.579 49.0369 46.2064 50 48.9346 50C50.3494 50 51.7136 49.7465 53.078 49.1889C56.8674 47.719 59.4442 44.4747 59.899 40.5208C59.9494 40.0138 60 39.5069 60 39C60 38.6451 59.9494 38.3411 59.9494 37.9862Z" fill="url(#paint1_linear_458_145)"/>
<defs>
<filter id="filter0_f_458_145" x="41" y="0" width="59" height="85" filterUnits="userSpaceOnUse" color-interpolation-filters="sRGB">
<feFlood flood-opacity="0" result="BackgroundImageFix"/>
<feBlend mode="normal" in="SourceGraphic" in2="BackgroundImageFix" result="shape"/>
<feGaussianBlur stdDeviation="2" result="effect1_foregroundBlur_458_145"/>
</filter>
<linearGradient id="paint0_linear_458_145" x1="33.7614" y1="45.5" x2="93.5261" y2="54.2404" gradientUnits="userSpaceOnUse">
<stop stop-color="#989898"/>
<stop offset="1" stop-color="white" stop-opacity="0"/>
</linearGradient>
<linearGradient id="paint1_linear_458_145" x1="14" y1="39" x2="58" y2="39" gradientUnits="userSpaceOnUse">
<stop stop-color="#FF847C"/>
<stop offset="1" stop-color="#FF5045"/>
</linearGradient>
</defs>
</svg>
