<svg width="100" height="85" viewBox="0 0 100 85" fill="none" xmlns="http://www.w3.org/2000/svg">
<g filter="url(#filter0_f_458_177)">
<path d="M45 4L96 12V81L45 73V4Z" fill="url(#paint0_linear_458_177)"/>
</g>
<rect x="0.5" y="3.5" width="71" height="71" rx="7.5" fill="white" stroke="#F0F2F6"/>
<path d="M26.5294 34.0509C29.1408 34.0798 31.2339 31.9703 31.2046 29.3393C31.1752 26.7082 29.0345 24.5519 26.4232 24.523C23.8119 24.4941 21.7187 26.6036 21.7481 29.2346C21.7518 29.5688 21.7896 29.8953 21.8581 30.2108C20.8281 31.8248 18.5625 33.9586 17.2666 34.3897C17.0728 34.3633 16.8755 34.3486 16.6754 34.3464C16.616 34.3457 16.5568 34.3462 16.4979 34.3477C16.492 34.3425 16.4863 34.337 16.4807 34.3314L16.4979 34.3477C13.9703 34.4143 11.9716 36.4872 12.0003 39.058C12.0296 41.689 14.1703 43.8453 16.7817 43.8742C19.3332 43.9024 21.39 41.8891 21.4555 39.3425L21.4704 39.3575C21.4653 39.3523 21.4603 39.3478 21.4555 39.3425C21.457 39.2831 21.4575 39.2226 21.4568 39.1626C21.4543 38.9398 21.4367 38.7204 21.4049 38.5054C21.8379 37.1808 23.9018 34.9485 25.4976 33.926C25.8302 34.0039 26.1755 34.0469 26.5294 34.0509Z" fill="url(#paint1_linear_458_177)"/>
<path d="M49.0527 32.6935C47.878 33.8731 46.2255 34.281 44.7 33.9237C43.105 34.9455 41.0369 37.1803 40.6034 38.5043C40.6444 38.7815 40.66 39.0586 40.6547 39.3394C40.6251 40.4975 40.1727 41.6384 39.3073 42.5148C38.4377 43.3911 37.293 43.8429 36.1393 43.8687C34.8758 43.8975 33.5941 43.4236 32.6196 42.442C30.756 40.5606 30.7229 37.545 32.5456 35.7038C33.411 34.8274 34.5473 34.3755 35.6924 34.3454C35.8065 34.3424 35.9207 34.3436 36.0349 34.3491C36.1786 34.355 36.3225 34.3651 36.4664 34.3879C37.7594 33.9591 40.0271 31.8203 41.0534 30.2089C40.7281 28.6849 41.1372 27.0496 42.291 25.8824C44.118 24.0413 47.111 24.0739 48.9788 25.9553C50.8466 27.8367 50.8797 30.8523 49.0527 32.6935Z" fill="url(#paint2_linear_458_177)"/>
<path d="M39.4075 23.2908C38.2006 24.5068 36.5109 24.9455 34.9591 24.6024C34.0927 24.4069 33.2651 23.9726 32.5926 23.2908C30.7089 21.3929 30.7089 18.3181 32.5926 16.4202C33.2651 15.7383 34.0927 15.304 34.9591 15.1086C35.2263 15.0521 35.4936 15.013 35.7651 15H36.2307C37.3816 15.0565 38.5239 15.5298 39.4075 16.4202C41.2912 18.3181 41.2912 21.3929 39.4075 23.2908Z" fill="url(#paint3_linear_458_177)"/>
<path d="M58.6511 42.2558C57.4805 43.4355 55.8237 43.8434 54.2981 43.4903C52.7031 44.508 50.6352 46.7423 50.2017 48.0662C50.2428 48.3435 50.2586 48.6206 50.2532 48.9016C50.2236 50.0597 49.7754 51.2005 48.9058 52.0768C47.0787 53.9138 44.0857 53.8813 42.2179 52.0041C40.3543 50.1227 40.3212 47.107 42.144 45.2657C43.0136 44.3893 44.1457 43.9374 45.2909 43.9073C45.5486 43.9016 45.8065 43.9129 46.0604 43.9497C47.3533 43.5209 49.6252 41.3822 50.6517 39.7708C50.3265 38.2469 50.7355 36.6117 51.8893 35.4446C53.7163 33.6034 56.7094 33.636 58.5772 35.5174C60.445 37.3989 60.4781 40.4145 58.6511 42.2558Z" fill="url(#paint4_linear_458_177)"/>
<path d="M31.0128 48.9518C31.0389 48.7573 31.0534 48.5593 31.0556 48.3586C31.0845 45.7279 28.9913 43.6185 26.3804 43.6469C23.7694 43.6754 21.6294 45.831 21.6005 48.4617C21.5723 51.0321 23.5701 53.105 26.0973 53.1719C26.1564 53.1735 26.2161 53.174 26.2757 53.1733C26.4941 53.1709 26.7092 53.1537 26.92 53.1225L26.9233 53.1236C28.2376 53.5565 30.4555 55.6409 31.4695 57.2485C31.1144 58.786 31.5188 60.456 32.6939 61.6402C33.3002 62.2513 34.0273 62.6523 34.803 62.8526C36.3756 63.2572 38.1308 62.8291 39.3792 61.5673C41.2476 59.6853 41.2807 56.6689 39.4532 54.8315C38.2991 53.6641 36.6717 53.2516 35.163 53.5833C35.079 53.5288 34.995 53.4744 34.907 53.4072C33.3441 52.3096 31.4129 50.1878 31.0128 48.9518Z" fill="url(#paint5_linear_458_177)"/>
<defs>
<filter id="filter0_f_458_177" x="41" y="0" width="59" height="85" filterUnits="userSpaceOnUse" color-interpolation-filters="sRGB">
<feFlood flood-opacity="0" result="BackgroundImageFix"/>
<feBlend mode="normal" in="SourceGraphic" in2="BackgroundImageFix" result="shape"/>
<feGaussianBlur stdDeviation="2" result="effect1_foregroundBlur_458_177"/>
</filter>
<linearGradient id="paint0_linear_458_177" x1="33.7614" y1="45.5" x2="93.5261" y2="54.2404" gradientUnits="userSpaceOnUse">
<stop stop-color="#989898"/>
<stop offset="1" stop-color="white" stop-opacity="0"/>
</linearGradient>
<linearGradient id="paint1_linear_458_177" x1="20" y1="16" x2="12.1583" y2="53.9805" gradientUnits="userSpaceOnUse">
<stop stop-color="#FF5050"/>
<stop offset="0.528032" stop-color="#FF824A"/>
<stop offset="1" stop-color="#FF5082"/>
</linearGradient>
<linearGradient id="paint2_linear_458_177" x1="20" y1="16" x2="12.1583" y2="53.9805" gradientUnits="userSpaceOnUse">
<stop stop-color="#FF5050"/>
<stop offset="0.528032" stop-color="#FF824A"/>
<stop offset="1" stop-color="#FF5082"/>
</linearGradient>
<linearGradient id="paint3_linear_458_177" x1="20" y1="16" x2="12.1583" y2="53.9805" gradientUnits="userSpaceOnUse">
<stop stop-color="#FF5050"/>
<stop offset="0.528032" stop-color="#FF824A"/>
<stop offset="1" stop-color="#FF5082"/>
</linearGradient>
<linearGradient id="paint4_linear_458_177" x1="20" y1="16" x2="12.1583" y2="53.9805" gradientUnits="userSpaceOnUse">
<stop stop-color="#FF5050"/>
<stop offset="0.528032" stop-color="#FF824A"/>
<stop offset="1" stop-color="#FF5082"/>
</linearGradient>
<linearGradient id="paint5_linear_458_177" x1="20" y1="16" x2="12.1583" y2="53.9805" gradientUnits="userSpaceOnUse">
<stop stop-color="#FF5050"/>
<stop offset="0.528032" stop-color="#FF824A"/>
<stop offset="1" stop-color="#FF5082"/>
</linearGradient>
</defs>
</svg>
