<svg width="100" height="85" viewBox="0 0 100 85" fill="none" xmlns="http://www.w3.org/2000/svg">
<g filter="url(#filter0_f_458_152)">
<path d="M45 4L96 12V81L45 73V4Z" fill="url(#paint0_linear_458_152)"/>
</g>
<rect x="0.5" y="3.5" width="71" height="71" rx="7.5" fill="white" stroke="#F0F2F6"/>
<path d="M26.9004 36C27.5257 36.0002 28.0536 36.4693 28.127 37.0947L28.3418 38.957C29.2604 39.1965 30.14 39.5533 30.9658 40.0176L32.417 38.8691C32.9106 38.4781 33.6149 38.522 34.0596 38.9619L36.1221 41.0244C36.5666 41.4692 36.6056 42.1734 36.2148 42.667L35.0859 44.0986C35.5551 44.91 35.9217 45.7755 36.166 46.6797L37.9053 46.8799C38.5308 46.9532 39 47.4818 39 48.1074V51.0254C38.9998 51.6508 38.5307 52.1787 37.9053 52.252L36.1904 52.4521C35.9558 53.3466 35.6038 54.2023 35.1543 55.0039L36.21 56.3379C36.6008 56.8315 36.5569 57.5357 36.1172 57.9805L34.0596 60.0381C33.6149 60.4829 32.9106 60.5219 32.417 60.1309L31.1221 59.1045C30.2816 59.5981 29.3825 59.9744 28.4395 60.2285L28.2441 61.9053C28.1708 62.5308 27.643 62.9999 27.0176 63H24.0996C23.4743 62.9998 22.9464 62.5308 22.873 61.9053L22.6777 60.2285C21.7103 59.9695 20.7868 59.5786 19.9268 59.0654L18.583 60.1309C18.0894 60.5219 17.3851 60.478 16.9404 60.0381L14.8779 57.9756C14.4334 57.5308 14.3943 56.8266 14.7852 56.333L15.9092 54.9111C15.4596 54.0998 15.1174 53.2343 14.8926 52.335L13.0947 52.1299C12.4692 52.0566 12 51.528 12 50.9023V47.9844C12.0002 47.3589 12.4693 46.8311 13.0947 46.7578L14.9912 46.5381C15.2307 45.7169 15.5622 44.9246 15.9824 44.1816L14.7852 42.6719C14.3943 42.1783 14.4382 41.4741 14.8779 41.0293L16.9404 38.9668C17.3851 38.522 18.0894 38.483 18.583 38.874L20.083 40.0615C20.8551 39.6167 21.6761 39.2698 22.5312 39.0254L22.7559 37.0947C22.8292 36.4692 23.357 36.0001 23.9824 36H26.9004ZM25.5615 44.7832C22.9031 44.7832 20.7373 46.9485 20.7373 49.6074C20.7373 52.2664 22.9031 54.4316 25.5615 54.4316C28.2198 54.4314 30.3848 52.2662 30.3848 49.6074C30.3847 46.9487 28.2198 44.7835 25.5615 44.7832ZM49.6924 24C50.2252 24 50.6748 24.3997 50.7373 24.9326L50.9209 26.5186C51.7035 26.7226 52.4527 27.0273 53.1562 27.4229L54.3926 26.4443C54.813 26.1112 55.4122 26.1487 55.791 26.5234L57.5479 28.2803C57.9267 28.6592 57.96 29.2592 57.627 29.6797L56.665 30.8994C57.0647 31.5906 57.3778 32.3274 57.5859 33.0977L59.0674 33.2686C59.6003 33.331 60 33.7805 60 34.3135V36.7988C60 37.3318 59.6002 37.7813 59.0674 37.8438L57.6064 38.0146C57.4066 38.7766 57.1066 39.5056 56.7236 40.1885L57.623 41.3252C57.9559 41.7457 57.9184 42.3448 57.5439 42.7236L55.791 44.4766C55.4122 44.8554 54.813 44.8887 54.3926 44.5557L53.2891 43.6816C52.5731 44.1021 51.8072 44.4232 51.0039 44.6396L50.8379 46.0674C50.7755 46.6002 50.3257 46.9998 49.793 47H47.3076C46.7748 47 46.3252 46.6003 46.2627 46.0674L46.0957 44.6396C45.2715 44.419 44.4846 44.0856 43.752 43.6484L42.6074 44.5557C42.187 44.8888 41.5878 44.8513 41.209 44.4766L39.4521 42.7197C39.0733 42.3408 39.04 41.7408 39.373 41.3203L40.3301 40.1094C39.9471 39.4183 39.6563 38.6811 39.4648 37.915L37.9326 37.7402C37.3999 37.6778 37.0002 37.2281 37 36.6953V34.209C37.0001 33.6762 37.3999 33.2265 37.9326 33.1641L39.5479 32.9766C39.7518 32.2772 40.0346 31.6025 40.3926 30.9697L39.373 29.6836C39.04 29.2631 39.0775 28.6631 39.4521 28.2842L41.209 26.5273C41.5878 26.1486 42.187 26.1152 42.6074 26.4482L43.8857 27.46C44.5433 27.0811 45.2424 26.7853 45.9707 26.5771L46.1621 24.9326C46.2245 24.3998 46.6743 24.0002 47.207 24H49.6924ZM48.5518 31.4824C46.2873 31.4826 44.4434 33.3269 44.4434 35.5918C44.4435 37.8566 46.2873 39.701 48.5518 39.7012C50.8163 39.7012 52.661 37.8567 52.6611 35.5918C52.6611 33.3268 50.8164 31.4824 48.5518 31.4824ZM30.4854 15C30.9255 15.0001 31.2971 15.3303 31.3486 15.7705L31.5 17.0811C32.1464 17.2496 32.7656 17.5004 33.3467 17.8271L34.3682 17.0186C34.7154 16.7438 35.2106 16.7746 35.5234 17.084L36.9746 18.5361C37.2873 18.8491 37.3149 19.3441 37.04 19.6914L36.2451 20.6992C36.5753 21.2702 36.8339 21.8793 37.0059 22.5156L38.2295 22.6562C38.6696 22.7078 38.9999 23.0794 39 23.5195V25.5732C38.9999 26.0135 38.6696 26.3849 38.2295 26.4365L37.0225 26.5771C36.8574 27.2066 36.6103 27.809 36.2939 28.373L37.0361 29.3115C37.3112 29.6589 37.2802 30.1548 36.9707 30.4678L35.5234 31.916C35.2106 32.2288 34.7154 32.2562 34.3682 31.9814L33.4561 31.2588C32.8647 31.6061 32.2319 31.871 31.5684 32.0498L31.4307 33.2295C31.3791 33.6698 31.0076 34 30.5674 34H28.5146C28.0745 33.9999 27.7029 33.6697 27.6514 33.2295L27.5137 32.0498C26.833 31.8675 26.1832 31.5925 25.5781 31.2314L24.6318 31.9814C24.2846 32.2562 23.7894 32.2254 23.4766 31.916L22.0254 30.4639C21.7127 30.1509 21.6851 29.6559 21.96 29.3086L22.751 28.3076C22.4346 27.7367 22.1943 27.1279 22.0361 26.4951L20.7705 26.3506C20.3304 26.299 20.0001 25.9275 20 25.4873V23.4336C20.0001 22.9934 20.3304 22.6219 20.7705 22.5703L22.1045 22.416C22.273 21.8382 22.507 21.2806 22.8027 20.7578L21.96 19.6953C21.6848 19.3479 21.7159 18.8521 22.0254 18.5391L23.4766 17.0879C23.7894 16.775 24.2845 16.7475 24.6318 17.0225L25.6875 17.8584C26.2308 17.5454 26.8093 17.3009 27.4111 17.1289L27.5693 15.7705C27.6209 15.3302 27.9924 15 28.4326 15H30.4854ZM29.543 21.1807C27.6724 21.1807 26.1487 22.7043 26.1484 24.5752C26.1484 26.4463 27.6722 27.9707 29.543 27.9707C31.4137 27.9707 32.9375 26.4463 32.9375 24.5752C32.9373 22.7043 31.4136 21.1807 29.543 21.1807Z" fill="url(#paint1_linear_458_152)"/>
<defs>
<filter id="filter0_f_458_152" x="41" y="0" width="59" height="85" filterUnits="userSpaceOnUse" color-interpolation-filters="sRGB">
<feFlood flood-opacity="0" result="BackgroundImageFix"/>
<feBlend mode="normal" in="SourceGraphic" in2="BackgroundImageFix" result="shape"/>
<feGaussianBlur stdDeviation="2" result="effect1_foregroundBlur_458_152"/>
</filter>
<linearGradient id="paint0_linear_458_152" x1="33.7614" y1="45.5" x2="93.5261" y2="54.2404" gradientUnits="userSpaceOnUse">
<stop stop-color="#989898"/>
<stop offset="1" stop-color="white" stop-opacity="0"/>
</linearGradient>
<linearGradient id="paint1_linear_458_152" x1="36" y1="15" x2="36" y2="63" gradientUnits="userSpaceOnUse">
<stop stop-color="#9488FF"/>
<stop offset="1" stop-color="#6351FF"/>
</linearGradient>
</defs>
</svg>
